<!DOCTYPE svg PUBLIC "-//W3C//DTD SVG 1.1//EN" "http://www.w3.org/Graphics/SVG/1.1/DTD/svg11.dtd">
<!-- Uploaded to: SVG Repo, www.svgrepo.com, Transformed by: SVG Repo Mixer Tools -->
<svg width="800px" height="800px" viewBox="0 0 24 24" fill="none" xmlns="http://www.w3.org/2000/svg" stroke="#a9a7a7">
<g id="SVGRepo_bgCarrier" stroke-width="0"/>
<g id="SVGRepo_tracerCarrier" stroke-linecap="round" stroke-linejoin="round"/>
<g id="SVGRepo_iconCarrier"> <path d="M6.07615 9.38268C6.23093 9.75636 6.59557 10 7.00003 10H17C17.4045 10 17.7691 9.75636 17.9239 9.38268C18.0787 9.00901 17.9931 8.57889 17.7071 8.29289L12.7071 3.29289C12.3166 2.90237 11.6834 2.90237 11.2929 3.29289L6.29292 8.29289C6.00692 8.57889 5.92137 9.00901 6.07615 9.38268Z" fill="#a9a7a7"/> <path d="M6.07615 14.6173C6.23093 14.2436 6.59557 14 7.00003 14H17C17.4045 14 17.7691 14.2436 17.9239 14.6173C18.0787 14.991 17.9931 15.4211 17.7071 15.7071L12.7071 20.7071C12.3166 21.0976 11.6834 21.0976 11.2929 20.7071L6.29292 15.7071C6.00692 15.4211 5.92137 14.991 6.07615 14.6173Z" fill="#a9a7a7"/> </g>
</svg>